<?xml version="1.0" standalone="no"?>
<!DOCTYPE svg PUBLIC "-//W3C//DTD SVG 20010904//EN"
 "http://www.w3.org/TR/2001/REC-SVG-20010904/DTD/svg10.dtd">
<svg version="1.0" xmlns="http://www.w3.org/2000/svg"
 width="360.000000pt" height="360.000000pt" viewBox="0 0 360.000000 360.000000"
 preserveAspectRatio="xMidYMid meet">
<metadata>
Created by potrace 1.16, written by Peter Selinger 2001-2019
</metadata>
<g transform="translate(0.000000,360.000000) scale(0.100000,-0.100000)"
fill="#5F00B8FF" stroke="none">
<path d="M0 1801 l0 -1801 1800 0 1800 0 0 788 c0 434 -3 792 -6 795 -4 4 -6
42 -5 84 1 55 -3 87 -14 111 -19 37 -26 39 -43 12 -14 -23 -42 -27 -42 -5 0 8
7 15 16 15 9 0 14 7 12 18 -2 13 -17 18 -68 22 -36 3 -54 8 -41 10 37 7 36 26
-1 35 l-33 7 29 10 c21 8 30 7 36 -2 13 -22 40 -3 40 28 0 41 -14 50 -70 44
-42 -4 -50 -2 -50 12 0 9 7 16 15 16 8 0 15 9 15 20 0 12 7 20 16 20 10 0 14
7 12 22 -5 32 -28 35 -28 4 0 -14 -6 -26 -12 -26 -17 1 -66 39 -50 40 6 0 12
7 12 15 0 8 5 15 10 15 6 0 10 11 10 25 0 24 -3 25 -55 25 -61 0 -68 -9 -30
-38 27 -22 33 -42 12 -42 -20 0 -77 30 -77 40 0 19 13 40 25 40 18 0 28 32 13
42 -22 14 -38 9 -64 -19 -17 -18 -28 -23 -32 -16 -4 7 -19 17 -32 22 -14 6
-32 15 -40 20 -8 5 -23 12 -32 15 -22 7 -14 32 13 39 24 6 25 25 2 34 -23 9
-37 23 -46 46 -9 23 -28 22 -34 -3 -4 -14 -14 -20 -34 -20 -28 0 -29 2 -29 46
0 42 -3 47 -31 57 -26 10 -30 16 -27 43 3 27 1 30 -19 26 -15 -3 -23 -11 -23
-24 0 -11 -5 -18 -12 -15 -7 2 -12 14 -10 25 2 12 -2 22 -7 22 -6 0 -11 9 -11
20 0 23 -29 27 -61 8 -17 -11 -22 -10 -33 4 -8 11 -16 14 -22 8 -6 -6 -15 -6
-24 0 -10 7 -11 10 -2 11 18 2 69 6 94 8 20 1 20 2 4 20 -15 16 -22 18 -48 9
-21 -8 -33 -7 -41 1 -6 6 -21 11 -34 11 -28 0 -30 16 -3 25 11 4 18 11 15 16
-4 5 0 9 8 9 8 0 20 7 27 15 10 13 10 19 -5 35 -10 11 -23 20 -28 20 -6 0 -18
7 -28 16 -19 18 -132 36 -137 23 -10 -25 -62 4 -62 34 0 12 9 14 40 10 33 -5
40 -3 40 11 0 9 -8 16 -20 16 -11 0 -20 5 -20 10 0 6 -9 10 -20 10 -13 0 -20
7 -20 20 0 11 -15 34 -32 50 -27 25 -30 31 -18 39 13 9 13 10 0 14 -21 6 -72
23 -92 32 -13 5 -18 2 -18 -9 0 -9 -7 -16 -15 -16 -20 0 -65 45 -65 65 0 8 -4
15 -9 15 -5 0 -11 12 -13 28 -2 21 -9 28 -30 30 -19 2 -28 9 -28 21 0 10 -9
21 -19 24 -11 2 -21 15 -23 28 -3 22 -9 24 -59 27 l-57 3 -1 91 c-1 97 -7 121
-17 69 -8 -37 -28 -49 -55 -33 -24 15 -29 15 -29 0 0 -7 -5 -20 -10 -28 -16
-24 -30 6 -30 68 l0 52 -34 0 c-28 0 -33 3 -29 19 3 14 -2 20 -22 25 -14 4
-30 4 -36 0 -6 -3 -21 -3 -35 0 -17 5 -24 13 -24 30 0 13 -8 27 -17 31 -14 6
-10 11 22 21 l40 12 -50 3 c-27 1 -61 4 -75 6 -14 3 -361 7 -772 9 l-748 5 0
-1800z m2195 1149 c-3 -5 -12 -7 -20 -3 -21 7 -19 13 6 13 11 0 18 -4 14 -10z
m145 -60 c0 -5 -4 -10 -10 -10 -5 0 -10 5 -10 10 0 6 5 10 10 10 6 0 10 -4 10
-10z m-334 -345 c49 -8 121 -25 159 -36 82 -25 153 -26 214 -5 122 44 240 39
294 -11 25 -25 33 -22 28 10 -1 5 3 6 9 2 7 -4 7 -13 -1 -26 -7 -15 -7 -24 1
-35 7 -7 15 -12 19 -10 7 5 11 -17 11 -54 0 -39 -4 -58 -12 -54 -5 3 -15 -10
-22 -28 -11 -25 -12 -36 -3 -47 10 -12 9 -12 -9 -3 -12 6 -24 9 -26 6 -3 -2
-11 4 -19 13 -13 16 -12 17 4 4 15 -12 17 -11 17 8 0 28 -34 61 -65 61 -13 0
-54 -10 -90 -21 -81 -27 -150 -90 -194 -178 -17 -33 -36 -61 -41 -61 -5 0 -25
-24 -43 -52 -19 -29 -57 -78 -85 -109 -44 -48 -50 -59 -39 -73 11 -15 17 -12
65 29 30 25 60 45 67 45 8 0 23 -10 35 -22 l20 -22 0 22 c0 28 12 28 36 1 10
-11 39 -35 64 -52 40 -29 53 -32 115 -32 62 0 74 3 108 29 49 37 77 93 77 151
0 25 5 45 10 45 21 0 111 -136 130 -199 25 -79 26 -173 1 -226 -43 -96 -198
-228 -376 -321 -60 -31 -174 -92 -251 -136 -376 -208 -423 -209 -770 -6 -60
36 -172 98 -248 138 -194 102 -353 235 -393 328 -33 75 -15 233 31 276 25 23
60 85 53 93 -3 2 -8 -5 -12 -16 -12 -39 -24 -11 -19 42 5 45 59 167 74 167 3
0 5 -53 6 -118 0 -130 8 -154 66 -209 71 -67 161 -63 260 12 64 50 73 53 64
28 -5 -16 -5 -16 6 -2 19 23 41 28 65 15 36 -20 84 -65 98 -93 l15 -28 0 42
c0 37 -7 50 -61 110 -33 37 -86 111 -116 163 -71 122 -140 194 -211 220 -89
33 -131 24 -152 -32 l-12 -33 -8 27 c-5 15 -18 39 -29 54 -12 15 -21 34 -21
42 0 29 74 125 107 138 49 21 160 17 239 -7 79 -25 141 -26 200 -5 39 14 166
41 229 49 76 10 251 6 331 -8z m774 -75 c-11 -7 -11 -10 -2 -10 7 0 10 -5 6
-11 -4 -8 -9 -7 -15 2 -9 15 -3 29 14 29 7 0 6 -4 -3 -10z m-22 -35 c-3 -3 -9
2 -12 12 -6 14 -5 15 5 6 7 -7 10 -15 7 -18z m119 -77 c-3 -8 -6 -5 -6 6 -1
11 2 17 5 13 3 -3 4 -12 1 -19z m-263 -111 c9 -7 20 -31 23 -54 5 -35 2 -45
-20 -67 -42 -42 -87 -32 -118 25 -13 25 5 84 29 99 24 13 65 12 86 -3z m-1524
-16 c23 -43 0 -121 -35 -121 -24 0 -45 30 -45 63 0 63 56 103 80 58z m1615
-11 c10 -11 14 -20 9 -20 -5 0 -15 9 -22 20 -7 11 -11 20 -9 20 2 0 12 -9 22
-20z m-40 0 c3 -5 1 -10 -4 -10 -6 0 -11 5 -11 10 0 6 2 10 4 10 3 0 8 -4 11
-10z m20 -135 c0 -77 -2 -87 -30 -127 -46 -64 -87 -88 -154 -88 -31 0 -63 5
-71 10 -11 7 -5 10 25 10 53 1 114 29 148 69 38 45 61 131 53 195 -7 49 -6 50
11 33 14 -14 18 -34 18 -102z m-1702 56 c-7 -54 21 -144 60 -187 37 -43 81
-64 132 -64 22 0 34 -4 30 -10 -3 -5 -32 -10 -64 -10 -48 0 -65 5 -99 30 -69
50 -102 145 -82 232 14 57 30 64 23 9z m1747 20 c0 -11 5 -23 10 -26 23 -14
51 -87 48 -126 l-3 -40 -36 53 c-40 59 -60 158 -33 158 8 0 14 -9 14 -19z
m610 -216 c0 -3 -9 -5 -20 -5 -11 0 -20 7 -20 15 0 13 4 14 20 5 11 -6 20 -13
20 -15z m80 -129 c0 -11 -19 -15 -25 -6 -3 5 1 10 9 10 9 0 16 -2 16 -4z"/>
<path d="M2066 1803 c-7 -21 5 -73 17 -73 4 0 12 0 17 0 6 0 15 12 21 26 7 21
6 31 -7 45 -21 24 -41 24 -48 2z"/>
<path d="M920 1675 l-45 -23 28 -11 c16 -6 40 -11 55 -11 32 0 105 -33 199
-89 165 -98 405 -139 741 -128 256 8 434 48 558 124 97 59 174 92 231 99 64 8
73 18 34 39 -42 21 -100 19 -136 -6 -64 -43 -148 -80 -251 -109 l-107 -30
-407 0 -407 0 -109 31 c-60 16 -134 44 -164 61 -159 90 -154 88 -220 53z"/>
<path d="M2326 1289 c-159 -82 -421 -169 -511 -169 -24 0 -81 11 -128 25 -83
24 -311 111 -370 141 -46 24 -42 9 5 -19 70 -40 281 -134 353 -156 102 -32
204 -29 318 9 98 33 336 146 377 179 34 27 26 26 -44 -10z"/>
<path d="M2428 2963 c7 -3 16 -2 19 1 4 3 -2 6 -13 5 -11 0 -14 -3 -6 -6z"/>
<path d="M2640 2616 c0 -18 20 -25 45 -16 18 7 18 8 3 14 -42 14 -48 15 -48 2z"/>
<path d="M3120 2259 c0 -24 23 -21 28 4 2 10 -3 17 -12 17 -10 0 -16 -9 -16
-21z"/>
</g>
</svg>
